<svg width="30" height="29" viewBox="0 0 30 29" fill="none" xmlns="http://www.w3.org/2000/svg">
<g clip-path="url(#clip0_419_12162)">
<path d="M18.4043 22.5854C18.4043 22.5854 18.4195 22.5525 18.49 22.2228C18.5475 21.9424 18.5745 21.7148 18.5745 21.7148L27.1446 24.3325C27.1446 24.3325 27.0647 24.4651 26.9086 24.6833C26.7278 24.9344 26.5107 25.1761 26.5107 25.1761L18.4043 22.5854Z" fill="url(#paint0_linear_419_12162)"/>
<path d="M0.00463867 6.88965L9.99969 8.2343V9.21871L0.00463867 8.12518V6.88965Z" fill="url(#paint1_linear_419_12162)"/>
<path d="M0.00463867 16.1041L9.99969 15.2476V14.4849L0.00463867 15.2476V16.1041Z" fill="url(#paint2_linear_419_12162)"/>
<path d="M1.15503 23.7189L10.1323 19.9678C10.1323 19.9678 10.1945 20.3609 10.279 20.6976C10.3553 21.005 10.4398 21.2315 10.4398 21.2315L1.86044 24.7503C1.86044 24.7503 1.75589 24.6271 1.5763 24.3725C1.28285 23.9642 1.15503 23.7189 1.15503 23.7189Z" fill="url(#paint3_linear_419_12162)"/>
<path d="M18.1577 16.2556C18.1577 16.2556 18.2434 16.6627 18.2857 16.9185C18.3338 17.179 27.4192 15.6302 27.4192 15.6302C27.4192 15.6302 27.3146 15.1139 27.2677 14.8875C27.2196 14.6598 18.1577 16.2556 18.1577 16.2556Z" fill="url(#paint4_linear_419_12162)"/>
<path d="M16.9204 8.33864C16.9204 8.33864 16.9873 7.98312 17.1294 7.59006C17.2808 7.18291 17.4135 6.93652 17.4135 6.93652L26.7312 10.1327C26.7312 10.1327 26.6937 10.2371 26.6702 10.3416C26.5986 10.6349 26.5904 10.8907 26.5904 10.8907L16.9204 8.33864Z" fill="url(#paint5_linear_419_12162)"/>
<path d="M12.7429 3.74059H9.99964V0H8.08631C2.74311 0 0 2.06038 0 6.5296V7.44246L10.3177 8.70262H12.7429V3.74059Z" fill="url(#paint6_linear_419_12162)"/>
<path d="M9.99969 8.69813H10.3226L0.00463867 7.43799V15.6067L9.99969 14.9062V8.69813Z" fill="url(#paint7_linear_419_12162)"/>
<path d="M16.0683 23.7142C15.7091 23.7706 14.9508 23.841 14.5 23.841C11.8812 23.841 10.7345 22.5303 10.2743 20.6929L1.56812 24.3666C3.11169 26.569 5.67534 27.957 8.7073 28.4686C8.712 28.4721 14.2959 27.1803 16.0683 23.7142Z" fill="url(#paint8_linear_419_12162)"/>
<path d="M9.99964 17.999V14.9014L0 15.6078V19.1172C0 21.1999 0.572748 22.9529 1.56814 24.3738L10.2743 20.6989C10.0712 19.8787 9.99964 18.9553 9.99964 17.999Z" fill="url(#paint9_linear_419_12162)"/>
<path d="M29.7257 8.69804V3.74072H23.3061C20.1943 3.74072 17.9487 5.29303 17.1294 7.59042L26.6655 10.3419C26.9836 9.07703 28.1058 8.67927 29.7257 8.69804Z" fill="url(#paint10_linear_419_12162)"/>
<path d="M26.6455 11.9044C26.5563 11.2744 26.5645 10.7581 26.6701 10.3369L17.134 7.58545C16.7596 8.64027 16.6845 9.84881 16.9674 11.1312C17.4228 13.2291 17.8924 14.8718 18.214 16.525L27.3416 15.2414C27.0117 13.6457 26.6983 12.274 26.6455 11.9044Z" fill="url(#paint11_linear_419_12162)"/>
<path d="M18.4839 22.2227C17.9393 24.9155 15.8745 27.071 12.103 28.4391L12.1875 28.7957C12.5056 28.8098 13.4201 28.8368 15.3662 28.8368C19.7164 28.8368 24.6464 27.789 26.9025 24.6809L18.4839 22.2227Z" fill="url(#paint12_linear_419_12162)"/>
<path d="M28.1529 20.6274C28.1529 19.4329 27.7361 17.1743 27.3382 15.2524L18.2141 16.5313C18.4689 17.8278 18.6356 19.1502 18.6356 20.6931C18.6356 21.2187 18.5886 21.7245 18.4841 22.2173L26.9027 24.6813C27.6939 23.5959 28.1529 22.2595 28.1529 20.6274Z" fill="url(#paint13_linear_419_12162)"/>
</g>
<defs>
<linearGradient id="paint0_linear_419_12162" x1="-0.0246619" y1="14.427" x2="156.449" y2="14.427" gradientUnits="userSpaceOnUse">
<stop offset="0.1098" stop-color="#E72F72"/>
<stop offset="0.8613" stop-color="#ED694B"/>
</linearGradient>
<linearGradient id="paint1_linear_419_12162" x1="-0.00240317" y1="14.4342" x2="156.47" y2="14.4342" gradientUnits="userSpaceOnUse">
<stop stop-color="#169FDB"/>
<stop offset="1" stop-color="#73C1EC"/>
</linearGradient>
<linearGradient id="paint2_linear_419_12162" x1="-0.00240317" y1="14.4501" x2="156.47" y2="14.4501" gradientUnits="userSpaceOnUse">
<stop stop-color="#169FDB"/>
<stop offset="1" stop-color="#007EC3"/>
</linearGradient>
<linearGradient id="paint3_linear_419_12162" x1="38.9853" y1="30.8293" x2="54.1875" y2="-16.7099" gradientUnits="userSpaceOnUse">
<stop stop-color="#1961AC"/>
<stop offset="1" stop-color="#007EC3"/>
</linearGradient>
<linearGradient id="paint4_linear_419_12162" x1="-0.0044662" y1="14.4346" x2="156.438" y2="14.4346" gradientUnits="userSpaceOnUse">
<stop offset="0.052" stop-color="#F9B233"/>
<stop offset="0.7399" stop-color="#ED694B"/>
</linearGradient>
<linearGradient id="paint5_linear_419_12162" x1="-0.00181788" y1="14.4205" x2="156.472" y2="14.4205" gradientUnits="userSpaceOnUse">
<stop offset="0.1618" stop-color="#F9B233"/>
<stop offset="0.8497" stop-color="#FFD631"/>
</linearGradient>
<linearGradient id="paint6_linear_419_12162" x1="-0.00649017" y1="14.4177" x2="156.462" y2="14.4177" gradientUnits="userSpaceOnUse">
<stop stop-color="#169FDB"/>
<stop offset="1" stop-color="#73C1EC"/>
</linearGradient>
<linearGradient id="paint7_linear_419_12162" x1="-11.9504" y1="14.4213" x2="126.976" y2="14.4213" gradientUnits="userSpaceOnUse">
<stop stop-color="#169FDB"/>
<stop offset="1" stop-color="#007EC3"/>
</linearGradient>
<linearGradient id="paint8_linear_419_12162" x1="57.1916" y1="7.88042" x2="73.0951" y2="43.063" gradientUnits="userSpaceOnUse">
<stop stop-color="#1961AC"/>
<stop offset="1" stop-color="#164194"/>
</linearGradient>
<linearGradient id="paint9_linear_419_12162" x1="18.8028" y1="23.16" x2="25.1945" y2="-12.6146" gradientUnits="userSpaceOnUse">
<stop stop-color="#1961AC"/>
<stop offset="1" stop-color="#007EC3"/>
</linearGradient>
<linearGradient id="paint10_linear_419_12162" x1="-0.00729284" y1="14.4283" x2="156.463" y2="14.4283" gradientUnits="userSpaceOnUse">
<stop offset="0.1618" stop-color="#F9B233"/>
<stop offset="0.8497" stop-color="#FFD631"/>
</linearGradient>
<linearGradient id="paint11_linear_419_12162" x1="-0.0178354" y1="14.4218" x2="156.49" y2="14.4218" gradientUnits="userSpaceOnUse">
<stop offset="0.052" stop-color="#F9B233"/>
<stop offset="0.7399" stop-color="#ED694B"/>
</linearGradient>
<linearGradient id="paint12_linear_419_12162" x1="61.987" y1="42.1966" x2="66.4788" y2="4.31814" gradientUnits="userSpaceOnUse">
<stop stop-color="#C3006B"/>
<stop offset="0.8902" stop-color="#E72F72"/>
</linearGradient>
<linearGradient id="paint13_linear_419_12162" x1="18.8502" y1="21.4085" x2="27.7156" y2="19.4755" gradientUnits="userSpaceOnUse">
<stop offset="0.1098" stop-color="#E72F72"/>
<stop offset="0.8613" stop-color="#ED694B"/>
</linearGradient>
<clipPath id="clip0_419_12162">
<rect width="30" height="29" fill="white"/>
</clipPath>
</defs>
</svg>
